<svg width="24" height="24" viewBox="0 0 24 24" fill="none" xmlns="http://www.w3.org/2000/svg">
<path d="M9.917 2.224C9.8714 2.15512 9.80945 2.09862 9.73669 2.05953C9.66392 2.02044 9.5826 1.99999 9.5 2H1.5C1.36739 2 1.24021 2.05268 1.14645 2.14645C1.05268 2.24021 1 2.36739 1 2.5V21.5C1.00045 21.6151 1.04058 21.7265 1.11363 21.8154C1.18667 21.9043 1.28816 21.9653 1.40096 21.9881C1.51376 22.0109 1.63097 21.9941 1.73281 21.9405C1.83466 21.887 1.9149 21.7999 1.96 21.694L9.96 2.694C9.99208 2.61817 10.0049 2.5356 9.99744 2.45361C9.98994 2.37162 9.96231 2.29275 9.917 2.224ZM2 19.024V3H8.747L2 19.024ZM22.5 2H14.5C14.4176 2.00014 14.3365 2.02064 14.2639 2.05967C14.1914 2.09871 14.1296 2.15508 14.0841 2.22376C14.0385 2.29244 14.0107 2.37131 14.003 2.45335C13.9953 2.53539 14.008 2.61806 14.04 2.694L22.04 21.694C22.0851 21.7999 22.1653 21.887 22.2672 21.9405C22.369 21.9941 22.4862 22.0109 22.599 21.9881C22.7118 21.9653 22.8133 21.9043 22.8864 21.8154C22.9594 21.7265 22.9996 21.6151 23 21.5V2.5C23 2.36739 22.9473 2.24021 22.8536 2.14645C22.7598 2.05268 22.6326 2 22.5 2ZM22 19.024L15.253 3H22V19.024ZM12.468 9.324C12.4324 9.22928 12.3689 9.1476 12.2858 9.08975C12.2028 9.0319 12.1042 9.00061 12.003 9H12C11.8993 8.99994 11.801 9.03026 11.7179 9.087C11.6347 9.14374 11.5706 9.22425 11.534 9.318L8.034 18.318C8.00437 18.3938 7.9937 18.4757 8.00291 18.5566C8.01213 18.6375 8.04094 18.7149 8.08687 18.7821C8.13279 18.8493 8.19443 18.9043 8.26642 18.9422C8.33842 18.9802 8.4186 19 8.5 19H11.691L13.053 21.724C13.0946 21.8069 13.1584 21.8767 13.2373 21.9254C13.3163 21.9742 13.4072 22 13.5 22H16.5C16.5808 22 16.6605 21.9804 16.7321 21.9429C16.8037 21.9054 16.8651 21.8511 16.9111 21.7846C16.9571 21.7181 16.9863 21.6415 16.9962 21.5613C17.0061 21.4811 16.9965 21.3997 16.968 21.324L12.468 9.324ZM13.808 21L12.448 18.276C12.4064 18.1929 12.3424 18.1231 12.2632 18.0743C12.1841 18.0255 12.0929 17.9998 12 18H9.23L11.991 10.901L15.778 21H13.808Z" fill="black"/>
</svg>
