<svg width="32" height="33" viewBox="0 0 32 33" fill="none" xmlns="http://www.w3.org/2000/svg">
<path fill-rule="evenodd" clip-rule="evenodd" d="M11.5555 2.16637C10.3994 2.16552 9.27315 2.53268 8.33973 3.21468C7.40631 3.89667 6.71422 4.8581 6.3637 5.9597C6.01319 7.06131 6.02244 8.24589 6.39012 9.34188C6.75781 10.4379 7.46483 11.3884 8.40879 12.0557C7.69807 12.5584 7.11846 13.2245 6.71868 13.9978C6.31891 14.7711 6.11066 15.6292 6.11146 16.4997C6.11146 18.3344 7.01946 19.9584 8.41146 20.9437C7.64889 21.4835 7.03807 22.2105 6.63778 23.0547C6.23748 23.8988 6.06118 24.8318 6.12584 25.7639C6.1905 26.6959 6.49394 27.5957 7.00697 28.3765C7.51999 29.1573 8.22534 29.793 9.05514 30.2223C9.88494 30.6516 10.8113 30.8602 11.745 30.8279C12.6787 30.7956 13.5884 30.5235 14.3866 30.0379C15.1847 29.5522 15.8445 28.8694 16.3023 28.0549C16.7601 27.2405 17.0007 26.322 17.0008 25.3877V20.7157C17.5672 21.1746 18.2199 21.515 18.9203 21.7168C19.6207 21.9187 20.3545 21.9778 21.0782 21.8907C21.8019 21.8036 22.5007 21.5721 23.1332 21.2098C23.7658 20.8476 24.3191 20.362 24.7604 19.7819C25.2018 19.2018 25.5221 18.5389 25.7025 17.8327C25.8828 17.1265 25.9195 16.3912 25.8104 15.6705C25.7012 14.9498 25.4485 14.2584 25.0671 13.6372C24.6857 13.016 24.1834 12.4778 23.5901 12.0544C24.5341 11.387 25.2411 10.4365 25.6088 9.34055C25.9765 8.24456 25.9857 7.05997 25.6352 5.95837C25.2847 4.85677 24.5926 3.89534 23.6592 3.21334C22.7258 2.53134 21.5995 2.16418 20.4435 2.16504L11.5555 2.16637ZM14.9995 19.9437H11.5555C11.1032 19.9437 10.6553 19.8546 10.2375 19.6815C9.81965 19.5085 9.43999 19.2548 9.12018 18.935C8.80038 18.6152 8.54669 18.2355 8.37362 17.8177C8.20054 17.3998 8.11146 16.952 8.11146 16.4997C8.11146 16.0474 8.20054 15.5996 8.37362 15.1817C8.54669 14.7639 8.80038 14.3842 9.12018 14.0644C9.43999 13.7446 9.81965 13.4909 10.2375 13.3179C10.6553 13.1448 11.1032 13.0557 11.5555 13.0557H14.9995V16.4997V19.9437ZM11.5555 11.0557H14.9995V4.16637H11.5555C10.6419 4.16637 9.76571 4.52929 9.11971 5.17529C8.47371 5.82129 8.11079 6.69746 8.11079 7.61104C8.11079 8.52462 8.47371 9.40079 9.11971 10.0468C9.76571 10.6928 10.6419 11.0557 11.5555 11.0557ZM23.8888 7.61037C23.8891 8.52332 23.527 9.39905 22.882 10.0451C22.2369 10.6911 21.3617 11.0546 20.4488 11.0557H16.9995V4.16637H20.4448C20.8971 4.16637 21.3449 4.25546 21.7628 4.42853C22.1806 4.60161 22.5603 4.85529 22.8801 5.1751C23.1999 5.4949 23.4536 5.87457 23.6266 6.29241C23.7997 6.71026 23.8888 7.1581 23.8888 7.61037ZM16.9995 16.4957C17.0005 15.5837 17.3633 14.7093 18.0082 14.0644C18.6531 13.4195 19.5274 13.0568 20.4395 13.0557H20.4475C21.1283 13.0565 21.7936 13.2591 22.3593 13.6378C22.9251 14.0165 23.3659 14.5544 23.6261 15.1836C23.8862 15.8127 23.9541 16.5049 23.8211 17.1726C23.6881 17.8403 23.3601 18.4536 22.8787 18.935C22.3973 19.4164 21.784 19.7443 21.1163 19.8773C20.4486 20.0103 19.7565 19.9425 19.1273 19.6823C18.4982 19.4221 17.9603 18.9813 17.5815 18.4156C17.2028 17.8498 17.0002 17.1845 16.9995 16.5037V16.4957ZM11.5555 21.9437C10.8744 21.9437 10.2085 22.1457 9.64221 22.524C9.07588 22.9024 8.63445 23.4402 8.37374 24.0694C8.11304 24.6987 8.04476 25.3911 8.17754 26.0591C8.31031 26.7271 8.63819 27.3408 9.11971 27.8225C9.60123 28.3042 10.2148 28.6323 10.8827 28.7654C11.5507 28.8984 12.2432 28.8304 12.8725 28.5699C13.5018 28.3095 14.0398 27.8682 14.4184 27.3021C14.797 26.7359 14.9992 26.0701 14.9995 25.389V21.9437H11.5555Z" fill="#242424"/>
</svg>
