<svg width="500" height="500" viewBox="0 0 500 500" fill="none" xmlns="http://www.w3.org/2000/svg">
<g clip-path="url(#clip0_3184_52512)">
<rect width="500" height="500" rx="250" fill="#D6FD3A"/>
<path d="M195.993 407.396C226.163 417.592 256.973 413.805 283.979 396.599C288.772 393.494 295.072 387.896 300.913 381.7C306.781 375.475 311.758 369.099 314.146 364.602L314.146 364.6C329.361 335.966 330.334 306.82 317.089 277.337C314.667 271.966 311.278 266.686 303.207 257.42C295.084 248.095 282.438 234.977 261.658 213.906L261.656 213.904C242.539 194.5 231.707 183.394 225.376 176.334C219.021 169.248 216.757 165.768 215.267 161.62C207.096 139.835 216.211 115.517 236.846 104.179L236.859 104.171L236.874 104.163C240.131 102.402 242.69 101.112 246.149 100.423C249.386 99.7784 253.236 99.6982 259.048 99.6982C266.752 99.6982 272.673 100.199 278.044 102.362C283.473 104.549 287.827 108.224 292.861 113.466L292.86 113.467C298.798 119.568 302.569 127.68 305.835 139.998C307.245 140.157 309.37 140.252 312.392 140.252C314.843 140.252 316.54 140.257 317.8 140.201C317.772 139.756 317.736 139.208 317.688 138.527L317.686 138.489L317.683 138.451C317.053 127.222 311.571 115.688 302.904 106.225C294.25 96.7755 282.715 89.722 270.503 87.1934L270.497 87.1924C238.417 80.5083 206.197 102.712 200.232 135.889L200.097 136.675C197.871 150.444 201.942 167.668 209.907 178.229C209.939 178.265 210.019 178.357 210.168 178.524C210.372 178.752 210.65 179.056 211.003 179.438C211.708 180.202 212.677 181.235 213.885 182.511C216.299 185.06 219.633 188.545 223.652 192.716C231.69 201.056 242.445 212.116 254.004 223.886L254.006 223.889C268.284 238.447 279.218 249.817 287.012 258.238C294.658 266.5 299.628 272.284 301.606 275.484L301.62 275.508L301.634 275.53C309.19 288.052 312.466 299.693 313.272 315.974L313.273 315.986V315.999C313.531 321.802 313.585 325.771 313.13 329.549C312.727 332.891 311.943 335.935 310.755 339.819L310.221 341.539C299.129 377.175 267.054 400.147 228.952 400.011H228.944C215.863 399.944 204.582 398.035 194.169 393.687C183.756 389.338 174.487 382.665 165.275 373.439L165.248 373.412C156.741 364.758 153.037 359.816 148.631 350.714L148.627 350.704L148.622 350.694C144.028 341.097 141.46 335.589 140.219 323.021C139.031 310.992 139.006 292.123 139.006 255.584C139.006 234.143 139.102 217.753 139.312 206.76C139.416 201.275 139.551 197.072 139.72 194.238C139.803 192.848 139.9 191.656 140.029 190.772C140.085 190.387 140.187 189.768 140.393 189.161C140.468 188.938 140.73 188.165 141.363 187.403C141.704 186.994 142.39 186.298 143.503 185.883C144.488 185.516 145.519 185.479 146.468 185.711C146.497 185.718 146.526 185.725 146.554 185.732C146.597 185.744 146.639 185.756 146.682 185.769C146.712 185.777 146.742 185.785 146.771 185.794C146.811 185.807 146.852 185.82 146.893 185.834C146.941 185.85 146.987 185.867 147.031 185.883C147.038 185.885 147.045 185.888 147.052 185.891C147.11 185.912 147.164 185.935 147.215 185.956C147.231 185.963 147.247 185.968 147.263 185.975L147.262 185.977C147.413 186.041 147.522 186.093 147.578 186.121C147.789 186.228 147.953 186.329 148.047 186.39C148.236 186.511 148.389 186.627 148.473 186.691C148.653 186.83 148.831 186.98 148.976 187.104C149.279 187.366 149.666 187.714 150.109 188.121C151.006 188.945 152.265 190.132 153.834 191.627C156.978 194.624 161.435 198.931 166.87 204.222C177.742 214.805 192.564 229.36 208.7 245.328C224.829 261.225 239.636 275.767 250.49 286.364C255.918 291.664 260.351 295.971 263.463 298.966C264.295 299.766 265.028 300.469 265.659 301.07C266.871 300.05 268.314 298.731 269.762 297.32C271.361 295.761 272.882 294.172 274.028 292.855C272.498 291.19 270.283 288.861 267.527 286.021C261.926 280.251 254.186 272.467 245.666 264.062C228.418 247.302 193.184 212.399 167.212 186.387C154.242 173.46 142.372 161.797 133.689 153.421C131.315 151.131 129.184 149.094 127.339 147.347C127.27 151.983 127.206 157.989 127.153 165.083C127.025 182.444 126.961 206.276 127.025 232.396C127.154 278.594 127.219 302.324 127.586 315.779C127.949 329.09 128.599 331.916 129.811 336.423L129.816 336.448C138.646 369.978 163.399 396.474 195.981 407.393L195.993 407.396ZM373.608 340.445L373.976 242.562C374.04 213.803 373.975 187.948 373.814 169.209C373.738 160.313 373.639 153.037 373.523 147.821C371.546 149.475 369.074 151.585 366.007 154.244C354.682 164.063 335.528 181.094 303.771 209.488H303.77L302.206 210.898L304.802 214.028L304.831 214.063C306.987 216.713 308.466 218.494 309.627 219.69C309.94 220.013 310.193 220.253 310.392 220.43C310.978 219.986 311.806 219.259 313.114 218.051L313.161 218.007L313.21 217.965C316.261 215.291 323.936 208.372 330.382 202.562V202.562C340.242 193.578 345.663 188.676 348.696 186.307C349.475 185.698 350.217 185.161 350.913 184.741C351.53 184.37 352.52 183.833 353.728 183.636C355.263 183.385 357.05 183.712 358.481 185.016C359.432 185.881 359.883 186.91 360.048 187.315L360.05 187.314C360.275 187.84 360.36 188.298 360.378 188.392C360.413 188.572 360.436 188.731 360.449 188.838C360.477 189.055 360.496 189.279 360.511 189.475C360.541 189.877 360.568 190.391 360.593 190.979C360.643 192.169 360.691 193.835 360.738 195.904C360.833 200.053 360.926 205.928 361.015 213.086C361.192 227.407 361.352 246.923 361.48 268.17L361.481 268.184L361.722 340.445H373.608Z" fill="black" stroke="black" stroke-width="10"/>
<path d="M470.1 211.244C486.53 348.334 388.715 472.786 251.625 489.216M29.38 292.141C12.9505 155.051 110.765 30.5983 247.856 14.1688" stroke="black" stroke-width="7.5"/>
</g>
<defs>
<clipPath id="clip0_3184_52512">
<rect width="500" height="500" rx="250" fill="white"/>
</clipPath>
</defs>
</svg>
